<?xml version="1.0" standalone="no"?><!DOCTYPE svg PUBLIC "-//W3C//DTD SVG 1.1//EN" "http://www.w3.org/Graphics/SVG/1.1/DTD/svg11.dtd"><svg t="1629272808570" class="icon" viewBox="0 0 1024 1024" version="1.1" xmlns="http://www.w3.org/2000/svg" p-id="6891" xmlns:xlink="http://www.w3.org/1999/xlink" width="200" height="200"><defs><style type="text/css"></style></defs><path d="M92.16 475.136q-3.072-3.072-9.216-4.096t-14.336-3.072l-48.128-16.384q20.48-63.488 33.792-146.944t22.528-188.928l75.776 8.192q-3.072 32.768-6.656 63.488t-9.728 60.416l68.608 0 0-220.16 99.328 0 0 220.16 79.872 0 0 75.776q46.08-66.56 79.36-140.8t56.832-155.136l100.352 23.552q-3.072 12.288-11.776 30.72t-19.968 46.08l-20.48 47.104 396.288 0-12.288 423.936q-3.072 72.704-5.632 120.32t-2.56 68.096q3.072 81.92-37.888 123.392t-121.856 44.544l-60.416 0q-23.552 3.072-41.472 3.584t-30.208 0.512q0-3.072-0.512-11.264t-3.584-16.384l-19.456-72.704q32.768 3.072 65.024 3.584t58.88 0.512q45.056 3.072 68.608-20.48t23.552-74.752q8.192-136.192 12.288-258.56t7.168-233.984l-63.488 0q-9.216 249.856-91.648 422.912t-237.056 269.312q-14.336-20.48-35.328-39.936t-44.544-39.936q306.176-186.368 335.872-612.352l-71.68 0q-34.816 299.008-239.616 480.256-18.432-21.504-36.864-41.472t-39.936-34.304q99.328-75.776 159.744-176.64t84.992-227.84l-64.512 0q-20.48 46.08-46.592 87.04t-52.736 76.8q-21.504-20.48-39.424-38.4t-33.28-29.184l20.48-28.672-64.512 0 0 184.32 83.968-19.456q0 35.84 0.512 62.464t3.584 40.96l-88.064 24.576 0 344.064-99.328 0 0-320.512-164.864 52.224-11.264-115.712 176.128-44.032 0-208.896-80.896 0-15.36 60.416q-3.072 26.624-8.192 45.056t-8.192 26.624z" p-id="6892" fill="#d4237a"></path></svg>